<svg id="Capa_1" enable-background="new 0 0 512.002 512.002" height="512" viewBox="0 0 512.002 512.002" width="512" xmlns="http://www.w3.org/2000/svg"><g><g><g><path d="m115.334 398.441h255.281v36h-255.281z" fill="#ffc269"/></g><g><path d="m202.055 398.442h81.84v36h-81.84z" fill="#ffa95f"/></g><g><path d="m115.334 398.442v36h37.269l10.691-36z" fill="#ffa95f"/></g><g><path d="m370.615 398.442h-47.959l10.691 36h37.268z" fill="#ffa95f"/></g><g><path d="m94.711 504.502c-14.539 0-24.981-13.994-20.842-27.931l41.248-138.897c2.74-9.225 11.218-15.552 20.842-15.552 14.539 0 24.981 13.994 20.842 27.931l-41.248 138.897c-2.74 9.225-11.219 15.552-20.842 15.552z" fill="#aab2bd"/></g><g><path d="m391.239 504.502c14.539 0 24.981-13.994 20.842-27.931l-41.248-138.897c-2.74-9.225-11.218-15.552-20.842-15.552-14.539 0-24.981 13.994-20.842 27.931l41.248 138.897c2.74 9.225 11.218 15.552 20.842 15.552z" fill="#aab2bd"/></g><g><path d="m135.958 322.122c-9.624 0-18.102 6.327-20.842 15.552l-41.247 138.897c-4.139 13.937 6.303 27.931 20.842 27.931 3.172 0 6.213-.699 8.971-1.951-9.452-4.317-15.026-15.163-11.813-25.98l29.352-98.839c1.667-5.613 7.192-9.241 12.983-8.372 5.035.755 10.187 1.149 15.43 1.149h1.092l6.075-20.455c4.138-13.939-6.304-27.932-20.843-27.932z" fill="#969faa"/></g><g><path d="m388.397 488.949-31.946-107.574c-1.883-6.341 1.792-12.982 8.157-14.783 4.598-1.301 9.068-2.912 13.386-4.806l-6.994-23.551c-2.831-9.535-11.587-16.337-21.53-16.107-14.265.33-24.41 14.155-20.32 27.925l41.248 138.897c2.74 9.225 11.218 15.552 20.842 15.552 3.255 0 6.302-.706 9.029-1.951-5.613-2.547-10.035-7.417-11.872-13.602z" fill="#969faa"/></g><g><path d="m336.316 350.508h-186.682c-46.425 0-84.06-37.635-84.06-84.06v-38.666l354.802 11.418v27.249c0 46.424-37.635 84.059-84.06 84.059z" fill="#fc8d94"/></g><g><path d="m88.254 266.448v-27.249h-22.68v27.249c0 46.425 37.635 84.06 84.06 84.06h22.68c-46.425 0-84.06-37.635-84.06-84.06z" fill="#fa6f7c"/></g><g><path d="m447.335 222.459c0 9.245-7.495 16.74-16.74 16.74h-375.24c-9.245 0-16.74-7.495-16.74-16.74 0-9.245 7.495-16.74 16.74-16.74h375.24c9.245 0 16.74 7.495 16.74 16.74z" fill="#aab2bd"/></g><g><path d="m65.574 222.459c0-9.245 7.495-16.74 16.74-16.74h-26.959c-9.245 0-16.74 7.495-16.74 16.74s7.495 16.74 16.74 16.74h26.959c-9.245 0-16.74-7.495-16.74-16.74z" fill="#969faa"/></g><g><path d="m242.975 504.502c-12.526 0-22.68-10.154-22.68-22.68v-144.46c0-12.526 10.154-22.68 22.68-22.68 12.526 0 22.68 10.154 22.68 22.68v144.46c0 12.525-10.154 22.68-22.68 22.68z" fill="#aab2bd"/></g><g><path d="m238.295 481.822v-144.46c0-9.327 5.632-17.336 13.68-20.82-2.76-1.195-5.802-1.86-9-1.86-12.526 0-22.68 10.154-22.68 22.68v144.46c0 12.526 10.154 22.68 22.68 22.68 3.198 0 6.24-.665 9-1.86-8.048-3.484-13.68-11.493-13.68-20.82z" fill="#969faa"/></g><g><path d="m460.208 121.993h-397.34c-7.279 0-13.179 5.9-13.179 13.179 0 7.279 5.9 13.179 13.179 13.179h397.34c7.279 0 13.179-5.9 13.179-13.179 0-7.278-5.901-13.179-13.179-13.179z" fill="#aab2bd"/></g><g><path d="m122.54 166.953h-21.652c-8.737 0-15.819-7.082-15.819-15.819v-31.924c0-8.737 7.082-15.819 15.819-15.819h21.652c8.737 0 15.819 7.082 15.819 15.819v31.924c0 8.737-7.083 15.819-15.819 15.819z" fill="#d19a6e"/></g><g><path d="m296.246 166.953h-18.281c-6.141 0-11.119-4.978-11.119-11.119v-41.324c0-6.141 4.978-11.119 11.119-11.119h18.281c6.141 0 11.119 4.978 11.119 11.119v41.324c-.001 6.141-4.979 11.119-11.119 11.119z" fill="#ccf49f"/></g><g><path d="m203.958 166.953h-2.673c-16.814 0-30.444-13.63-30.444-30.444v-2.673c0-16.814 13.63-30.444 30.444-30.444h2.673c16.814 0 30.444 13.63 30.444 30.444v2.673c0 16.814-13.63 30.444-30.444 30.444z" fill="#ffc269"/></g><g><path d="m371.816 166.953h-2.673c-16.814 0-30.444-13.63-30.444-30.444v-2.673c0-16.814 13.63-30.444 30.444-30.444h2.673c16.814 0 30.444 13.63 30.444 30.444v2.673c0 16.814-13.63 30.444-30.444 30.444z" fill="#fc8d94"/></g><g><path d="m101.388 151.134v-31.924c0-8.737 7.082-15.819 15.819-15.819h-16.32c-8.737 0-15.819 7.082-15.819 15.819v31.924c0 8.737 7.082 15.819 15.819 15.819h16.32c-8.736 0-15.819-7.082-15.819-15.819z" fill="#bc845e"/></g><g><path d="m283.166 155.834v-41.324c0-6.141 4.978-11.119 11.119-11.119h-16.32c-6.141 0-11.119 4.978-11.119 11.119v41.324c0 6.141 4.978 11.119 11.119 11.119h16.32c-6.141 0-11.119-4.978-11.119-11.119z" fill="#b3e59f"/></g><g><path d="m187.161 136.509v-2.673c0-14.467 10.094-26.568 23.621-29.667-2.195-.503-4.476-.777-6.823-.777h-2.673c-16.814 0-30.444 13.63-30.444 30.444v2.673c0 16.814 13.63 30.444 30.444 30.444h2.673c2.347 0 4.629-.274 6.823-.777-13.527-3.099-23.621-15.2-23.621-29.667z" fill="#ffa95f"/></g><g><path d="m355.019 136.509v-2.673c0-14.467 10.094-26.568 23.621-29.667-2.195-.503-4.477-.777-6.823-.777h-2.673c-16.814 0-30.444 13.63-30.444 30.444v2.673c0 16.814 13.63 30.444 30.444 30.444h2.673c2.347 0 4.629-.274 6.823-.777-13.527-3.099-23.621-15.2-23.621-29.667z" fill="#fa6f7c"/></g></g><g><path d="m430.595 198.219h-129.42c-4.142 0-7.5 3.358-7.5 7.5s3.358 7.5 7.5 7.5h129.42c5.095 0 9.24 4.145 9.24 9.24s-4.145 9.24-9.24 9.24h-292.236c-4.142 0-7.5 3.358-7.5 7.5s3.358 7.5 7.5 7.5h274.517v19.749c0 42.215-34.345 76.56-76.56 76.56h-63.161v-5.646c0-16.641-13.539-30.18-30.18-30.18-16.642 0-30.18 13.539-30.18 30.18v5.646h-63.161c-42.215 0-76.56-34.345-76.56-76.56v-19.749h32.981c4.142 0 7.5-3.358 7.5-7.5s-3.358-7.5-7.5-7.5h-50.7c-5.095 0-9.24-4.145-9.24-9.24s4.145-9.24 9.24-9.24h214.74c4.142 0 7.5-3.358 7.5-7.5s-3.358-7.5-7.5-7.5h-214.74c-13.366 0-24.24 10.874-24.24 24.24s10.874 24.24 24.24 24.24h2.719v19.749c0 34.189 18.839 64.056 46.679 79.78l-38.074 128.207c-2.653 8.935-.978 18.343 4.596 25.813 5.574 7.469 14.116 11.753 23.436 11.753 12.847 0 24.374-8.602 28.031-20.917l14.594-49.143h75.459v39.88c0 16.642 13.539 30.18 30.18 30.18s30.18-13.539 30.18-30.18v-39.88h75.459l14.594 49.143c3.657 12.315 15.184 20.917 28.031 20.917 9.32 0 17.862-4.284 23.436-11.754s7.249-16.878 4.595-25.812l-19.89-66.979c-1.179-3.97-5.352-6.232-9.325-5.055-3.971 1.179-6.233 5.354-5.054 9.325l19.89 66.979c1.292 4.351.477 8.933-2.238 12.571-2.714 3.638-6.875 5.725-11.414 5.725-6.257 0-11.871-4.189-13.652-10.188l-38.268-128.861c9.838-.319 19.288-2.195 28.112-5.393l9.736 32.783c1.179 3.97 5.351 6.236 9.325 5.054 3.971-1.179 6.233-5.354 5.054-9.325l-10.348-34.846c27.839-15.723 46.679-45.591 46.679-79.78v-19.749h2.719c13.366 0 24.24-10.874 24.24-24.24-.001-13.363-10.875-24.237-24.241-24.237zm-217.8 192.722h-60.314l9.78-32.934h50.534zm-104.432 95.873c-1.782 5.999-7.396 10.188-13.652 10.188-4.539 0-8.699-2.086-11.414-5.724s-3.531-8.221-2.239-12.572l37.461-126.145c8.823 3.198 18.273 5.074 28.111 5.392zm33.427-59.873 6.236-21h64.768v21zm116.365 54.88c0 8.371-6.81 15.18-15.18 15.18-8.371 0-15.18-6.81-15.18-15.18v-144.46c0-8.37 6.81-15.18 15.18-15.18s15.18 6.81 15.18 15.18zm65.533-123.813 9.78 32.934h-60.314v-32.934zm-50.533 68.933v-21h64.768l6.236 21z"/><path d="m460.208 114.493h-55.765c-6.622-11.127-18.765-18.602-32.626-18.602h-2.673c-13.861 0-26.004 7.475-32.626 18.602h-21.654c-.009-10.259-8.357-18.602-18.618-18.602h-18.281c-10.26 0-18.608 8.343-18.617 18.602h-22.763c-6.622-11.127-18.765-18.602-32.626-18.602h-2.673c-13.861 0-26.005 7.475-32.626 18.602h-23.28c-2.187-10.604-11.596-18.602-22.839-18.602h-21.652c-11.242 0-20.651 7.997-22.839 18.602h-15.182c-11.402 0-20.679 9.277-20.679 20.679s9.276 20.679 20.679 20.679h15.181c2.187 10.605 11.597 18.602 22.839 18.602h21.652c11.242 0 20.652-7.997 22.839-18.602h23.28c6.622 11.127 18.765 18.602 32.626 18.602h2.673c13.861 0 26.004-7.475 32.626-18.602h22.763c.009 10.259 8.357 18.602 18.617 18.602h18.281c10.26 0 18.609-8.343 18.618-18.602h21.654c6.622 11.127 18.765 18.602 32.626 18.602h2.673c13.861 0 26.005-7.475 32.626-18.602h55.765c11.402 0 20.679-9.276 20.679-20.679s-9.276-20.679-20.678-20.679zm-403.019 20.679c0-3.131 2.547-5.679 5.679-5.679h14.701v11.358h-14.701c-3.131 0-5.679-2.547-5.679-5.679zm73.67 15.962c0 4.587-3.732 8.319-8.319 8.319h-21.652c-4.587 0-8.319-3.732-8.319-8.319v-31.924c0-4.587 3.732-8.319 8.319-8.319h21.652c4.587 0 8.319 3.732 8.319 8.319zm15-10.283v-11.358h17.738c-.163 1.426-.163 9.932 0 11.358zm81.043-4.342c0 12.651-10.292 22.944-22.944 22.944h-2.673c-12.651 0-22.944-10.293-22.944-22.944v-2.673c0-12.651 10.293-22.944 22.944-22.944h2.673c12.651 0 22.944 10.292 22.944 22.944zm14.744-7.016h17.7v11.358h-17.7c.163-1.426.163-9.932 0-11.358zm58.218 26.342c0 1.995-1.624 3.619-3.619 3.619h-18.281c-1.995 0-3.618-1.624-3.618-3.619v-41.325c0-1.995 1.623-3.619 3.618-3.619h18.281c1.995 0 3.619 1.624 3.619 3.619zm15-14.984v-11.358h16.591c-.163 1.426-.163 9.932 0 11.358zm79.897-4.342c0 12.651-10.293 22.944-22.944 22.944h-2.673c-12.651 0-22.944-10.293-22.944-22.944v-2.673c0-12.651 10.292-22.944 22.944-22.944h2.673c12.651 0 22.944 10.292 22.944 22.944zm65.447 4.342h-50.703c.163-1.426.163-9.932 0-11.358h50.703c3.131 0 5.679 2.548 5.679 5.679s-2.548 5.679-5.679 5.679z"/><path d="m192.979 47.984-3.466 11.266c-1.218 3.959 1.004 8.156 4.963 9.374.735.226 1.478.333 2.208.333 3.206 0 6.174-2.072 7.166-5.296l3.466-11.266c2.25-7.314 1.307-15.286-2.589-21.873-1.853-3.133-2.216-6.897-.997-10.328l3.62-10.181c1.388-3.903-.651-8.191-4.554-9.579-3.899-1.387-8.191.651-9.579 4.554l-3.62 10.181c-2.715 7.635-1.906 16.014 2.219 22.989 1.75 2.959 2.174 6.54 1.163 9.826z"/><path d="m237.682 47.984-3.466 11.266c-1.218 3.959 1.004 8.156 4.963 9.374.735.226 1.478.333 2.208.333 3.206 0 6.174-2.072 7.166-5.296l3.466-11.266c2.25-7.314 1.307-15.286-2.589-21.873-1.854-3.134-2.217-6.898-.997-10.328l3.62-10.181c1.388-3.903-.651-8.191-4.554-9.579-3.898-1.387-8.191.651-9.579 4.554l-3.62 10.18c-2.715 7.634-1.907 16.014 2.219 22.99 1.75 2.959 2.175 6.54 1.163 9.826z"/><path d="m282.386 47.984-3.466 11.266c-1.218 3.959 1.004 8.156 4.963 9.374.735.226 1.478.333 2.208.333 3.206 0 6.174-2.072 7.166-5.296l3.466-11.266c2.25-7.314 1.307-15.287-2.589-21.873-1.853-3.133-2.216-6.897-.997-10.328l3.62-10.181c1.388-3.903-.651-8.191-4.554-9.579-3.9-1.387-8.191.651-9.579 4.554l-3.62 10.181c-2.715 7.635-1.906 16.015 2.219 22.989 1.749 2.959 2.174 6.54 1.163 9.826z"/></g></g></svg>