<svg id="Capa_1" enable-background="new 0 0 512 512" height="512" viewBox="0 0 512 512" width="512" xmlns="http://www.w3.org/2000/svg"><g><g><g><path d="m470.008 372.631h-344.126v-334.077c0-17.151 13.903-31.054 31.054-31.054h223.616c13.133 0 25.727 5.217 35.014 14.503l70.994 70.994c9.286 9.286 14.503 21.881 14.503 35.013v213.566c-.001 17.151-13.905 31.055-31.055 31.055z" fill="#f4f4f4"/></g><g><g><path d="m206.783 329.876c-5.238-1.661-9.656-4.634-12.777-8.601l-7.527-9.566v-116.586c0-39.65-10.473-78.596-30.358-112.898l-2.683-4.627c-.37-.639-.76-1.261-1.167-1.866-4.762-7.074-7.309-15.404-7.309-23.932v-13.246c0-17.151 13.903-31.054 31.054-31.054h-19.08c-17.151 0-31.054 13.903-31.054 31.054v334.077h128.478c-8.722-20.005-25.718-35.826-47.577-42.755z" fill="#e5e5e5"/></g><g><path d="m417.841 290.199c-1.257-6.173-4.231-14.589-11.273-19.584-5.509-3.908-9.168-9.905-9.753-16.634l-5.64-64.858c-1.443-16.608-15.104-29.133-31.774-29.133-16.672 0-30.332 12.524-31.775 29.132l-5.64 64.859c-.596 6.851-4.289 13.092-10.091 16.784-7.721 4.913-10.497 12.997-11.453 19.071-.75 4.765-3.978 8.695-8.435 10.539-15.905 6.578-27.126 22.262-27.126 40.516v31.74h189.04v-31.74c0-18.524-11.554-34.4-27.834-40.801-4.26-1.676-7.333-5.406-8.246-9.891z" fill="#e5e5e5"/></g></g><g><path d="m417.448 107.5h79.153c-2.433-5.345-5.809-10.27-10.042-14.503l-70.994-70.994c-4.233-4.233-9.158-7.609-14.503-10.042v79.153c0 9.05 7.336 16.386 16.386 16.386z" fill="#e5e5e5"/></g><g><path d="m125.881 341.577 40.597-22.942v-123.511c0-36.127-9.542-71.613-27.66-102.868l-2.683-4.628c-4.566-7.877-15.941-7.877-20.507 0l-2.683 4.628c-18.119 31.255-27.66 66.741-27.66 102.868v123.511z" fill="#aab2bd"/></g><g><g><path d="m200.739 348.941c-8.838-2.801-16.718-8.012-22.451-15.298l-11.81-15.009-40.597 22.942v105.452c0 31.741 25.731 57.471 57.471 57.471 31.741 0 57.471-25.731 57.471-57.471v-43.308c.001-25.678-16.843-47.413-40.084-54.779zm10.583 98.087c0 15.422-12.547 27.969-27.969 27.969s-27.969-12.547-27.969-27.969v-43.308c0-15.422 12.547-27.969 27.969-27.969s27.969 12.547 27.969 27.969z" fill="#fc8d94"/></g></g><g><path d="m183.353 504.5c3.244 0 6.42-.282 9.517-.799-27.257-4.496-48.056-28.142-48.056-56.673v-116.15l-18.932 10.699v105.452c-.001 31.74 25.73 57.471 57.471 57.471z" fill="#fa6f7c"/></g><g><g><path d="m10.938 403.721v43.308c0 31.741 25.731 57.471 57.471 57.471 31.741 0 57.471-25.731 57.471-57.471v-105.452l-40.597-22.942-11.81 15.009c-5.733 7.286-13.613 12.497-22.451 15.298-23.24 7.365-40.084 29.1-40.084 54.779zm29.503 0c0-15.422 12.547-27.969 27.969-27.969s27.969 12.547 27.969 27.969v43.308c0 15.422-12.547 27.969-27.969 27.969s-27.969-12.547-27.969-27.969z" fill="#fc8d94"/></g></g><g><path d="m104.928 195.124c0-36.127 9.542-71.613 27.66-102.868l2.683-4.628c.132-.229.276-.443.421-.657-4.811-7.19-15.633-6.986-20.064.657l-2.683 4.628c-18.119 31.255-27.661 66.741-27.661 102.868v123.511l19.644 11.101z" fill="#969faa"/></g><g><path d="m51.023 348.941c-23.241 7.366-40.085 29.101-40.085 54.779v43.308c0 31.741 25.731 57.471 57.471 57.471 3.246 0 6.425-.283 9.524-.8-27.253-4.5-48.047-28.144-48.047-56.671v-35.461c0-25.679 16.844-47.413 40.085-54.779 8.838-2.801 16.718-8.012 22.451-15.298l10.252-13.028-17.39-9.827-11.81 15.009c-5.733 7.286-13.613 12.496-22.451 15.297z" fill="#fa6f7c"/></g><g><circle cx="125.881" cy="293.11" fill="#ffc269" r="16.03"/></g><g><path d="m410.1 504.5h-101.4c-13.155 0-23.82-10.665-23.82-23.82v-139.79c0-13.155 10.665-23.82 23.82-23.82h101.4c13.155 0 23.82 10.665 23.82 23.82v139.79c0 13.155-10.665 23.82-23.82 23.82z" fill="#ffc269"/></g><g><path d="m398.76 317.07h-78.72v-21.28c0-6.627 5.373-12 12-12h54.72c6.627 0 12 5.373 12 12z" fill="#fc8d94"/></g><g><path d="m304.811 480.68v-139.79c0-13.155 10.665-23.82 23.82-23.82h-19.931c-13.155 0-23.82 10.665-23.82 23.82v139.79c0 13.155 10.665 23.82 23.82 23.82h19.931c-13.155 0-23.82-10.665-23.82-23.82z" fill="#ffa95f"/></g><g><path d="m351.971 283.79h-19.931c-6.627 0-12 5.373-12 12v21.28h19.931v-21.28c0-6.627 5.373-12 12-12z" fill="#fa6f7c"/></g><g><path d="m324.88 450.755v-79.94c0-7.591 6.154-13.745 13.745-13.745h41.55c7.591 0 13.745 6.154 13.745 13.745v79.94c0 7.591-6.154 13.745-13.745 13.745h-41.55c-7.591 0-13.745-6.154-13.745-13.745z" fill="#f4f4f4"/></g><g><path d="m347.55 190.854-8.081 92.936h39.862l-8.081-92.936c-.534-6.147-5.68-10.864-11.85-10.864-6.17 0-11.316 4.718-11.85 10.864z" fill="#69d6f4"/></g><g><path d="m366.72 182.516c-2.026-1.584-4.569-2.526-7.32-2.526-6.17 0-11.316 4.718-11.85 10.864l-8.081 92.936h14.64l8.081-92.936c.296-3.406 2.012-6.369 4.53-8.338z" fill="#51c1ed"/></g></g><g><path d="m501.062 184.565c-4.142 0-7.5 3.358-7.5 7.5v149.511c0 12.987-10.566 23.554-23.554 23.554h-28.588v-24.24c0-17.27-14.05-31.32-31.32-31.32h-3.84v-13.78c0-10.752-8.748-19.5-19.5-19.5h-.553l-7.485-86.085c-.877-10.099-9.184-17.715-19.322-17.715-10.137 0-18.443 7.616-19.322 17.714l-7.485 86.085h-.553c-10.752 0-19.5 8.748-19.5 19.5v13.78h-3.84c-17.27 0-31.32 14.05-31.32 31.32v24.24h-41.686c-7.935-10.764-19.21-19.067-32.688-23.338-7.637-2.421-14.146-6.842-18.823-12.786l-10.204-12.968v-120.913c0-10.799-.833-21.685-2.477-32.356-.63-4.093-4.458-6.905-8.554-6.271-4.094.63-6.901 4.46-6.271 8.554 1.527 9.918 2.302 20.037 2.302 30.073v119.134l-33.097 18.704-33.097-18.704v-119.134c0-34.762 9.215-69.032 26.648-99.106l2.684-4.628c1.135-1.958 3.011-2.169 3.764-2.169.754 0 2.63.211 3.765 2.169l2.684 4.629c6.914 11.927 12.591 24.618 16.873 37.721 1.287 3.938 5.524 6.088 9.458 4.799 3.938-1.287 6.086-5.521 4.799-9.458-4.607-14.098-10.715-27.753-18.154-40.585l-2.683-4.629c-3.502-6.04-9.761-9.646-16.743-9.646-6.981 0-13.24 3.606-16.741 9.646l-2.684 4.628c-18.757 32.357-28.671 69.229-28.671 106.629v120.914l-10.204 12.967c-4.678 5.945-11.187 10.366-18.823 12.787-27.106 8.591-45.319 33.479-45.319 61.929v43.308c0 35.825 29.146 64.971 64.972 64.971 24.905 0 46.57-14.093 57.471-34.716 10.901 20.623 32.566 34.716 57.472 34.716 35.825 0 64.971-29.146 64.971-64.971v-43.308c0-8.27-1.549-16.235-4.398-23.59h33.453v100.55c0 17.27 14.05 31.32 31.32 31.32h101.4c17.27 0 31.32-14.05 31.32-31.32v-100.551h28.588c21.259 0 38.554-17.295 38.554-38.554v-149.511c.001-4.142-3.357-7.5-7.499-7.5zm-432.653 312.435c-27.554 0-49.971-22.417-49.971-49.971v-43.308c0-21.882 14.005-41.023 34.851-47.63 10.516-3.333 19.534-9.491 26.079-17.81l7.83-9.95 31.183 17.622v101.076c0 27.554-22.417 49.971-49.972 49.971zm164.915-49.971c0 27.554-22.417 49.971-49.971 49.971-27.555 0-49.972-22.417-49.972-49.971v-101.076l31.183-17.622 7.83 9.95c6.544 8.318 15.562 14.476 26.079 17.81 20.845 6.607 34.851 25.748 34.851 47.63zm121.697-255.525c.199-2.289 2.082-4.014 4.378-4.014 2.297 0 4.179 1.726 4.378 4.014l7.372 84.786h-23.501zm-27.481 104.286c0-2.481 2.019-4.5 4.5-4.5h7.536.016 39.72.01.011 7.426c2.481 0 4.5 2.019 4.5 4.5v13.78h-63.72v-13.78zm98.88 184.89c0 8.999-7.321 16.32-16.32 16.32h-101.4c-8.999 0-16.32-7.321-16.32-16.32v-139.79c0-8.999 7.321-16.32 16.32-16.32h101.4c8.999 0 16.32 7.321 16.32 16.32z"/><path d="m491.862 87.694-70.994-70.994c-10.769-10.769-25.087-16.7-40.317-16.7h-223.616c-21.259 0-38.554 17.295-38.554 38.554v14.006c0 4.142 3.358 7.5 7.5 7.5s7.5-3.358 7.5-7.5v-14.006c0-12.987 10.566-23.554 23.554-23.554h223.616c4.487 0 8.863.71 13.011 2.056v74.058c0 13.171 10.715 23.886 23.886 23.886h74.059c1.346 4.148 2.056 8.523 2.056 13.01v28.23c0 4.142 3.358 7.5 7.5 7.5s7.5-3.358 7.5-7.5v-28.23c-.001-15.229-5.932-29.547-16.701-40.316zm-74.414 12.306c-4.899 0-8.886-3.986-8.886-8.886v-65.41c.578.518 73.778 73.719 74.296 74.297h-65.41z"/><path d="m183.353 368.251c-19.558 0-35.469 15.912-35.469 35.469v43.308c0 19.558 15.912 35.469 35.469 35.469s35.469-15.912 35.469-35.469v-43.308c0-19.557-15.912-35.469-35.469-35.469zm20.469 78.777c0 11.287-9.183 20.469-20.469 20.469s-20.469-9.183-20.469-20.469v-43.308c0-11.287 9.183-20.469 20.469-20.469s20.469 9.183 20.469 20.469z"/><path d="m68.409 368.251c-19.558 0-35.469 15.912-35.469 35.469v43.308c0 19.558 15.912 35.469 35.469 35.469s35.469-15.912 35.469-35.469v-43.308c.001-19.557-15.911-35.469-35.469-35.469zm20.47 78.777c0 11.287-9.182 20.469-20.469 20.469s-20.469-9.183-20.469-20.469v-43.308c0-11.287 9.182-20.469 20.469-20.469s20.469 9.183 20.469 20.469z"/><path d="m125.881 269.58c-12.974 0-23.53 10.555-23.53 23.53s10.556 23.53 23.53 23.53c12.975 0 23.53-10.556 23.53-23.53s-10.555-23.53-23.53-23.53zm0 32.06c-4.703 0-8.53-3.827-8.53-8.53s3.827-8.53 8.53-8.53c4.704 0 8.53 3.827 8.53 8.53s-3.826 8.53-8.53 8.53z"/><path d="m380.175 349.57h-41.55c-11.714 0-21.245 9.531-21.245 21.245v16.185c0 4.142 3.358 7.5 7.5 7.5s7.5-3.358 7.5-7.5v-16.185c0-3.443 2.802-6.245 6.245-6.245h41.55c3.443 0 6.245 2.802 6.245 6.245v79.94c0 3.443-2.802 6.245-6.245 6.245h-41.55c-3.443 0-6.245-2.802-6.245-6.245v-35.188c0-4.142-3.358-7.5-7.5-7.5s-7.5 3.358-7.5 7.5v35.188c0 11.714 9.531 21.245 21.245 21.245h41.55c11.714 0 21.245-9.531 21.245-21.245v-79.94c0-11.714-9.531-21.245-21.245-21.245z"/></g></g></svg>