<svg id="Capa_1" enable-background="new 0 0 511.991 511.991" height="512" viewBox="0 0 511.991 511.991" width="512" xmlns="http://www.w3.org/2000/svg"><g><g><g><path d="m479.649 390.24h-51.917c-6.556 0-11.87-5.314-11.87-11.87v-4.911c0-6.556 5.314-11.87 11.87-11.87h51.917c6.556 0 11.87 5.314 11.87 11.87v4.911c0 6.556-5.315 11.87-11.87 11.87z" fill="#d19a6e"/></g><g><path d="m479.649 504.491h-51.917c-6.556 0-11.87-5.314-11.87-11.87v-4.911c0-6.556 5.314-11.87 11.87-11.87h51.917c6.556 0 11.87 5.314 11.87 11.87v4.911c0 6.556-5.315 11.87-11.87 11.87z" fill="#d19a6e"/></g><g><path d="m435.297 390.24h36.787v85.6h-36.787z" fill="#ffc269"/></g><g><path d="m434.256 378.37v-4.911c0-6.556 5.314-11.87 11.87-11.87h-18.393c-6.556 0-11.87 5.314-11.87 11.87v4.911c0 6.556 5.314 11.87 11.87 11.87h18.393c-6.556 0-11.87-5.314-11.87-11.87z" fill="#bc845e"/></g><g><path d="m434.256 492.621v-4.911c0-6.556 5.314-11.87 11.87-11.87h-18.393c-6.556 0-11.87 5.314-11.87 11.87v4.911c0 6.556 5.314 11.87 11.87 11.87h18.393c-6.556 0-11.87-5.314-11.87-11.87z" fill="#bc845e"/></g><g><path d="m435.297 390.24h18.393v85.6h-18.393z" fill="#ffa95f"/></g><g><path d="m205.011 12.543c-3.517-3.88-8.948-5.889-14.517-4.72l-34.856 7.318c-30.525 6.409-62.069 6.207-92.51-.59l-27.718-6.191c-4.217-.942-8.207.469-10.908 3.17l90.761 90.761z" fill="#ffc269"/></g><g><path d="m25.515 192.039c2.339 2.12 5.357 3.545 8.771 3.882l97.727 9.651c25.186 2.487 49.749 9.331 72.592 20.227l35.269 16.823c5.014 2.392 10.14.969 13.414-2.305l-138.025-138.026z" fill="#ffc269"/></g><g><path d="m24.502 11.53c-2.701 2.701-4.112 6.691-3.17 10.908l6.19 27.719c6.798 30.441 6.999 61.984.59 92.51l-7.318 34.856c-1.169 5.569.84 11 4.72 14.517l89.748-89.748z" fill="#fc8d94"/></g><g><path d="m155.053 182.531-97.727-9.651c-3.414-.337-6.432-1.762-8.771-3.882l-23.04 23.04c2.339 2.12 5.357 3.545 8.771 3.882l97.727 9.651c25.186 2.487 49.749 9.331 72.592 20.227l35.269 16.823c5.014 2.392 10.14.969 13.414-2.305l-46.035-46.035c-16.828-6.028-34.356-9.988-52.2-11.75z" fill="#ffa95f"/></g><g><path d="m51.153 119.626c5.505-26.22 6.118-53.19 1.877-79.569l-28.528-28.527c-2.701 2.701-4.112 6.691-3.17 10.908l6.19 27.719c6.798 30.441 6.999 61.984.59 92.51l-7.318 34.855c-1.169 5.569.84 11 4.72 14.517l23.04-23.04c-3.88-3.516-5.889-8.948-4.72-14.517z" fill="#fa6f7c"/></g><g><path d="m46.949 10.937-11.539-2.577c-4.217-.942-8.207.469-10.908 3.17l28.528 28.527c-.696-4.331-1.509-8.648-2.468-12.941z" fill="#ffa95f"/></g><g><path d="m115.263 102.291 138.025 138.025c3.274-3.274 4.697-8.4 2.305-13.414l-16.823-35.269c-10.896-22.843-17.74-47.406-20.227-72.592l-9.651-97.727c-.337-3.413-1.762-6.432-3.882-8.771z" fill="#fc8d94"/></g><g><path d="m207.253 194.281 46.035 46.035c3.274-3.274 4.697-8.4 2.305-13.414l-6.676-13.997-21.272-10.146c-6.659-3.177-13.468-5.998-20.392-8.478z" fill="#fa6f7c"/></g></g><path d="m479.648 397.74c10.681 0 19.37-8.689 19.37-19.37v-4.911c0-10.681-8.689-19.37-19.37-19.37h-51.916c-10.681 0-19.37 8.689-19.37 19.37v4.911c0 10.681 8.689 19.37 19.37 19.37h.064v27.402h-32.84c-21.086 0-41.209-9.043-55.21-24.811-14-15.768-20.599-36.819-18.104-57.758 3.397-28.523-7.285-57.065-28.575-76.349l-30.105-27.266c1.9-4.836 1.774-10.312-.6-15.286l-16.822-35.269c-10.552-22.124-17.124-45.709-19.533-70.101-.407-4.121-4.069-7.128-8.201-6.727-4.122.407-7.133 4.079-6.727 8.201 2.58 26.125 9.619 51.387 20.921 75.083l12.367 25.928-118.497-118.496 75.979-75.979 5.862 59.358c.382 3.871 3.644 6.764 7.455 6.764.246 0 .496-.013.746-.037 4.122-.407 7.133-4.079 6.727-8.201l-2.823-28.586c19.69 11.903 33.722 31.057 39.073 53.807 5.833 24.795 20.669 46.303 41.775 60.562l11.365 7.678c1.287.869 2.747 1.286 4.191 1.286 2.407 0 4.772-1.157 6.222-3.303 2.318-3.433 1.416-8.095-2.017-10.413l-11.365-7.678c-17.971-12.141-30.604-30.454-35.57-51.567-7.12-30.269-27.315-55.131-55.446-68.314l-1.688-17.09c-.483-4.894-2.476-9.401-5.762-13.039-.009-.01-.016-.021-.025-.031-5.429-5.992-13.709-8.685-21.616-7.024l-34.855 7.316c-29.681 6.23-59.737 6.04-89.334-.569l-27.72-6.191c-6.48-1.451-13.149.492-17.843 5.185-.001 0-.001.001-.002.001s0 0 0 0c-.001 0-.001.001-.002.002-4.693 4.694-6.632 11.364-5.185 17.843l6.19 27.719c1.193 5.34 2.189 10.795 2.961 16.214.533 3.742 3.742 6.442 7.416 6.442.352 0 .709-.024 1.067-.076 4.101-.584 6.951-4.383 6.367-8.483-.827-5.804-1.894-11.646-3.171-17.366l-4.613-20.658 74.428 74.428-76.455 76.455 7.251-34.539c3.518-16.754 5.125-33.929 4.775-51.049-.084-4.141-3.519-7.408-7.652-7.345-4.141.084-7.43 3.51-7.345 7.651.326 15.983-1.173 32.019-4.458 47.66l-7.317 34.855c-1.66 7.902 1.032 16.186 7.023 21.616.02.018.041.033.061.051 3.633 3.27 8.129 5.255 13.009 5.737l12.471 1.232c4.214 26.918 21.519 50.612 46.136 62.681 18.257 8.95 31.601 25.387 36.609 45.093l3.058 12.035c.863 3.396 3.914 5.655 7.264 5.655.611 0 1.233-.075 1.853-.233 4.015-1.02 6.442-5.101 5.422-9.115l-3.058-12.036c-6.094-23.979-22.329-43.977-44.544-54.867-19.053-9.34-32.77-27.156-37.197-47.677l69.714 6.885c24.393 2.409 47.978 8.98 70.1 19.532l35.269 16.823c2.707 1.291 5.562 1.92 8.381 1.92 2.578 0 5.123-.537 7.5-1.566l30.47 27.598c17.696 16.028 26.574 39.751 23.75 63.459-3.001 25.19 4.938 50.519 21.783 69.489 16.846 18.972 41.057 29.852 66.427 29.852h32.84v28.197h-.064c-10.681 0-19.37 8.689-19.37 19.37v4.911c0 10.681 8.689 19.37 19.37 19.37h51.916c10.681 0 19.37-8.689 19.37-19.37v-4.911c0-10.681-8.689-19.37-19.37-19.37h-.064v-70.6zm-418.154-375.871c31.702 7.081 63.895 7.284 95.686.61l34.54-7.251-76.456 76.456-74.43-74.428zm146.34 197.159c-23.695-11.302-48.957-18.341-75.083-20.921l-93.467-9.23 75.979-75.979 118.498 118.498zm215.528 159.342v-4.911c0-2.41 1.96-4.37 4.37-4.37h51.916c2.41 0 4.37 1.96 4.37 4.37v4.911c0 2.41-1.96 4.37-4.37 4.37h-51.916c-2.41 0-4.37-1.96-4.37-4.37zm60.657 109.34v4.911c0 2.41-1.96 4.37-4.37 4.37h-51.916c-2.41 0-4.37-1.96-4.37-4.37v-4.911c0-2.41 1.96-4.37 4.37-4.37h51.916c2.41 0 4.37 1.96 4.37 4.37zm-41.222-19.37v-28.197h21.787v28.197zm21.787-43.197h-21.787v-27.403h21.787z"/></g></svg>